<?xml version="1.0" encoding="UTF-8"?>
<svg width="18px" height="19px" viewBox="0 0 18 19" version="1.1" xmlns="http://www.w3.org/2000/svg" xmlns:xlink="http://www.w3.org/1999/xlink">
    <!-- Generator: Sketch 64 (93537) - https://sketch.com -->
    <title>Dribbble</title>
    <desc>Created with Sketch.</desc>
    <g id="Page-1" stroke="none" stroke-width="1" fill="none" fill-rule="evenodd">
        <g id="Artboard" transform="translate(-1285.000000, -345.000000)" fill="#000000" fill-rule="nonzero">
            <g id="Wide" transform="translate(1114.000000, 119.000000)">
                <g id="dribbble" transform="translate(132.000000, 219.000000)">
                    <path d="M48,7.5 C43.0294373,7.5 39,11.5294373 39,16.5 C39,21.4705627 43.0294373,25.5 48,25.5 C52.9705627,25.5 57,21.4705627 57,16.5 C57,14.1130516 56.0517884,11.8238664 54.363961,10.136039 C52.6761336,8.44821156 50.3869484,7.5 48,7.5 Z M48,9.29999943 C49.8492554,9.29926234 51.6267909,10.0154382 52.959,11.298 C51.5838204,12.1045814 50.1265901,12.7622961 48.612,13.26 C47.8582383,11.9611432 46.9940471,10.7295954 46.029,9.579 C46.6697654,9.39449763 47.3332009,9.30058667 48,9.29999943 L48,9.29999943 Z M44.301,10.335 C45.2439144,11.4136547 46.0901723,12.5731184 46.83,13.8 C45.0633905,14.2386638 43.250253,14.4622841 41.43,14.466 L41.106,14.466 C41.6164818,12.7376762 42.7565425,11.2636259 44.301,10.335 Z M42.6,21.279 C41.4288786,19.9638778 40.7874713,18.2609415 40.8,16.5 C40.8,16.41 40.8,16.32 40.8,16.239 L41.412,16.239 C43.5426379,16.2199522 45.6612542,15.9172927 47.712,15.339 C48,15.888 48.27,16.455 48.531,17.04 C47.1283421,17.5344792 45.8220068,18.2683412 44.67,19.209 L44.4,19.425 C43.758406,20.0012116 43.1570007,20.620659 42.6,21.279 Z M48,23.7 C46.5654796,23.7031819 45.1633767,23.2734547 43.977,22.467 C44.4151566,21.9644343 44.8840564,21.4895229 45.381,21.045 L45.669,20.802 C46.7338477,19.9064075 47.9540753,19.2139283 49.269,18.759 C49.8102021,20.2223928 50.2315889,21.7273457 50.529,23.259 C49.7188227,23.5548122 48.8624819,23.7041385 48,23.7 Z M52.167,22.359 C51.8725464,20.9969068 51.4876946,19.6559388 51.015,18.345 L51.321,18.345 C51.3564661,18.3362319 51.3935339,18.3362319 51.429,18.345 L51.528,18.345 L51.618,18.345 L52.05,18.345 C52.997122,18.3477102 53.9371099,18.5089379 54.831,18.822 C54.3398953,20.2533249 53.407098,21.4918023 52.167,22.359 L52.167,22.359 Z M52.05,16.5 C51.861,16.5 51.672,16.5 51.492,16.5 C51.3754606,16.4853174 51.2575394,16.4853174 51.141,16.5 C50.8963844,16.5150234 50.6529247,16.5450802 50.412,16.59 L50.322,16.59 C50.061,15.987 49.791,15.402 49.494,14.79 C51.1055611,14.236551 52.653352,13.5124383 54.111,12.63 C54.8340942,13.7904315 55.2118211,15.1327668 55.2,16.5 C55.2,16.653 55.2,16.806 55.2,16.959 C54.1800154,16.6441961 53.1174066,16.4893589 52.05,16.5 L52.05,16.5 Z" id="Dribbble"></path>
                </g>
            </g>
        </g>
    </g>
</svg>