<?xml version="1.0" encoding="UTF-8"?>
<svg width="18px" height="19px" viewBox="0 0 18 19" version="1.1" xmlns="http://www.w3.org/2000/svg" xmlns:xlink="http://www.w3.org/1999/xlink">
    <!-- Generator: Sketch 64 (93537) - https://sketch.com -->
    <title>Git</title>
    <desc>Created with Sketch.</desc>
    <g id="Page-1" stroke="none" stroke-width="1" fill="none" fill-rule="evenodd">
        <g id="Artboard" transform="translate(-1177.000000, -345.000000)" fill="#000000" fill-rule="nonzero">
            <g id="Wide" transform="translate(1114.000000, 119.000000)">
                <g id="git" transform="translate(24.000000, 219.000000)">
                    <path d="M46.6248753,23.4550474 C46.624839,23.2121893 46.5183721,22.9819031 46.3342883,22.8265124 C46.1502045,22.6711216 45.9075376,22.6066933 45.671962,22.6506641 C44.6158388,22.8471712 43.2823893,22.8767241 42.9278473,21.8670571 C42.6186991,21.0850931 42.1066166,20.4025129 41.4458881,19.8916803 C41.3987455,19.8656813 41.3538153,19.8357554 41.3115613,19.8022116 C41.1931854,19.4856221 40.8946658,19.2756969 40.560727,19.2742093 L40.55679,19.2742093 C40.1126938,19.2740471 39.752035,19.6379256 39.7500112,20.0881791 C39.7468681,20.7551694 40.404311,21.1825215 40.6710283,21.3271044 C40.9855415,21.6474946 41.2383085,22.0245893 41.4163443,22.4390166 C41.7102174,23.276151 42.5642533,24.5462243 45.0192225,24.3824929 C45.0200293,24.4112525 45.0207957,24.4384088 45.021191,24.4631685 L45.0247328,24.6820386 C45.0247328,25.1337862 45.3859349,25.5 45.8315002,25.5 C46.2770656,25.5 46.6382677,25.1337862 46.6382677,24.6820386 L46.6343307,24.4216324 C46.6303936,24.2666205 46.6248753,24.0421555 46.6248753,23.4550474 Z M55.2306639,11.082563 C55.2562707,10.9803178 55.2814902,10.8668911 55.3035472,10.7390846 C55.4340253,9.82753879 55.3202749,8.897191 54.9742167,8.04553766 C54.8858285,7.82079385 54.7040138,7.64712954 54.4774738,7.57106278 C54.1902646,7.47280926 53.1298414,7.27950043 51.1018942,8.59351455 C49.4161843,8.19131847 47.6614037,8.19131847 45.9756938,8.59351455 C43.9560079,7.29874707 42.9010626,7.47444518 42.6166448,7.56710385 C42.3843956,7.64013044 42.1971705,7.81571701 42.1072922,8.04479332 C41.7541714,8.91279745 41.641659,9.86212038 41.7819067,10.7902317 C41.801608,10.8948735 41.8228744,10.991532 41.8449395,11.0801909 C41.1765894,11.9827632 40.8205948,13.0836756 40.8321478,14.2122469 C40.8299698,14.4640445 40.8414108,14.7157737 40.8664193,14.966301 C41.1358796,18.7310012 43.556182,19.861293 45.2425761,20.2495138 C45.2075221,20.351759 45.1756144,20.4611859 45.1472485,20.5770174 C45.0419944,21.015212 45.3063464,21.457124 45.7382627,21.565004 C46.170179,21.672884 46.6067451,21.4060407 46.7142974,20.9684201 C46.7656302,20.6958839 46.8972074,20.4455134 47.0916871,20.2503073 C47.3319473,20.0370447 47.4254431,19.7001225 47.3301084,19.3911303 C47.2347737,19.0821381 46.9685716,18.8592961 46.6512728,18.8228664 C43.8646173,18.5001561 42.6548533,17.3491044 42.4728627,14.8161397 C42.4527033,14.6155162 42.4436291,14.4139064 42.4456827,14.2122551 C42.4327388,13.4079167 42.6948357,12.6238376 43.1874489,11.9932158 C43.2369468,11.9274703 43.2896682,11.8642851 43.345414,11.8038986 C43.5467865,11.5754432 43.6053263,11.2520347 43.4970863,10.9659707 C43.4426583,10.8183526 43.4007508,10.6662957 43.3718195,10.5114541 C43.3060936,10.0711592 43.3276515,9.62199476 43.4352314,9.19025013 C44.1364203,9.39103736 44.7963432,9.71786945 45.3835749,10.1551829 C45.5800678,10.2878754 45.8237102,10.3275177 46.0512879,10.2638245 C47.6818524,9.81517223 49.4009214,9.81545459 51.0313424,10.2646424 C51.260195,10.3282769 51.5050545,10.2871209 51.7014112,10.1520173 C52.2859002,9.71288488 52.9430537,9.3831313 53.6419128,9.17829153 C53.7490178,9.59966761 53.7729801,10.0383424 53.7124243,10.4691328 C53.6832066,10.6388903 53.6375513,10.8053135 53.576121,10.9659871 C53.4678848,11.2520514 53.5264242,11.5754578 53.7277932,11.803915 C53.7900353,11.875004 53.8522775,11.9516879 53.9082106,12.0235785 C54.3973421,12.643526 54.6550095,13.4185899 54.6358262,14.2122469 C54.6372877,14.4245967 54.6271607,14.6368657 54.6054917,14.8480811 C54.4278334,17.3474931 53.2133499,18.4993545 50.4136893,18.8228583 C50.0963102,18.8595053 49.8301448,19.0825559 49.7349058,19.391689 C49.6396667,19.700822 49.7332914,20.0378156 49.9736703,20.2511007 C50.1742587,20.4515203 50.306124,20.7119086 50.349874,20.9939732 C50.4043928,21.2129422 50.4294388,21.4383833 50.4243306,21.6641618 L50.4243306,23.5732837 C50.4164323,24.1028646 50.4164323,24.4998622 50.4164323,24.6819895 C50.4164323,25.1337371 50.7776344,25.4999509 51.2231998,25.4999509 C51.6687651,25.4999509 52.0299672,25.1337371 52.0299672,24.6819895 C52.0299672,24.5046555 52.0299672,24.1156494 52.0378494,23.5860521 L52.0378494,21.6641618 C52.0443447,21.3024838 52.0023338,20.9415883 51.9129698,20.5913808 C51.8874184,20.4764212 51.8561266,20.3628511 51.8192154,20.2511089 C54.3537429,19.8242207 56.2120367,17.6015749 56.2123143,14.9966638 C56.2388999,14.7360826 56.2512677,14.4742114 56.2493611,14.2122469 C56.2672681,13.0824543 55.9083036,11.9796429 55.2306558,11.0825793 L55.2306639,11.082563 Z" id="Git"></path>
                </g>
            </g>
        </g>
    </g>
</svg>