<?xml version="1.0" encoding="UTF-8"?>
<svg width="48px" height="33px" viewBox="0 0 48 33" version="1.1" xmlns="http://www.w3.org/2000/svg" xmlns:xlink="http://www.w3.org/1999/xlink">
    <!-- Generator: Sketch 64 (93537) - https://sketch.com -->
    <title>Logo</title>
    <desc>Created with Sketch.</desc>
    <g id="Page-1" stroke="none" stroke-width="1" fill="none" fill-rule="evenodd">
        <g id="Artboard" transform="translate(-1138.000000, -143.000000)">
            <g id="Wide" transform="translate(1114.000000, 119.000000)">
                <g id="Logo" transform="translate(24.000000, 24.000000)">
                    <path d="M47.988947,11.6302355 C48.0967727,8.57670149 47.4142474,5.54601685 46.0047448,2.81958566 C45.0484148,1.70086463 43.7212058,0.945904138 42.2543845,0.686256402 C36.1873516,0.147644654 30.095218,-0.0731146422 24.0040848,0.0249243322 C17.9351435,-0.077564397 11.864928,0.136070726 5.81919836,0.664923109 C4.62392324,0.877651367 3.51778133,1.42618474 2.63575301,2.24358676 C0.673355193,4.01425004 0.455310991,7.04357759 0.23726679,9.60357269 C-0.0790889299,14.2063662 -0.0790889299,18.8247527 0.23726679,23.4275463 C0.300347346,24.8684091 0.51962073,26.2986461 0.891399395,27.6942048 C1.15430643,28.7716766 1.68622044,29.7685393 2.43951323,30.5955326 C3.32753744,31.456237 4.45944064,32.0359739 5.68837184,32.2595294 C10.3892216,32.8272482 15.1257991,33.0625247 19.861245,32.9635281 C27.492792,33.0701945 34.186749,32.9635281 42.1017535,32.3661959 C43.360862,32.156374 44.5246409,31.5758943 45.4378298,30.702199 C46.0482677,30.104689 46.5042402,29.3733442 46.7678995,28.5688698 C47.5476873,26.2277911 47.9306907,23.7776475 47.9017293,21.3155503 C47.988947,20.1208859 47.988947,12.910233 47.988947,11.6302355 Z" id="Path" fill="#FF4B71" fill-rule="nonzero"></path>
                    <g id="Group-3" transform="translate(19.500000, 7.500000)" fill="#FFFFFF">
                        <path d="M2.29499841,1.43437401 L10.7280025,6.70500159 C11.5192951,7.19955945 12,8.06687009 12,9 C12,9.93312991 11.5192951,10.8004405 10.7280025,11.2949984 L2.29499841,16.565626 C1.59249361,17.0046915 0.667068042,16.7911317 0.228002544,16.0886269 C0.0790041673,15.8502295 -1.07579458e-15,15.5747581 0,15.2936285 L0,2.70637146 C3.42636147e-16,1.87794434 0.671572875,1.20637146 1.5,1.20637146 C1.78112957,1.20637146 2.05660101,1.28537563 2.29499841,1.43437401 Z" id="Rectangle" opacity="0.5"></path>
                        <path d="M2.33205029,1.5547002 L8.33205029,5.5547002 C8.7493483,5.83289886 9,6.30124586 9,6.80277564 L9,11.1972244 C9,11.6987541 8.7493483,12.1671011 8.33205029,12.4452998 L2.33205029,16.4452998 C1.64275726,16.9048285 0.711453247,16.7185677 0.251924558,16.0292747 C0.0876570412,15.7828734 2.92284625e-15,15.4933618 0,15.1972244 L0,2.80277564 C-5.45542273e-16,1.97434851 0.671572875,1.30277564 1.5,1.30277564 C1.79613748,1.30277564 2.08564902,1.39043268 2.33205029,1.5547002 Z" id="Rectangle" opacity="0.5"></path>
                        <path d="M2.4,1.8 L5.4,4.05 C5.77770876,4.33328157 6,4.77786405 6,5.25 L6,12.75 C6,13.222136 5.77770876,13.6667184 5.4,13.95 L2.4,16.2 C1.7372583,16.6970563 0.797056275,16.5627417 0.3,15.9 C0.105266808,15.6403557 2.03814801e-15,15.3245553 0,15 L0,3 C3.42636147e-16,2.17157288 0.671572875,1.5 1.5,1.5 C1.82455532,1.5 2.14035574,1.60526681 2.4,1.8 Z" id="Rectangle" opacity="0.75"></path>
                        <path d="M1.5,1.5 L2.56066017,2.56066017 C2.84196474,2.84196474 3,3.22349561 3,3.62132034 L3,14.3786797 C3,14.7765044 2.84196474,15.1580353 2.56066017,15.4393398 L1.5,16.5 C1.15685425,16.8431458 0.600505063,16.8431458 0.257359313,16.5 C0.0925749123,16.3352156 4.39606703e-15,16.11172 0,15.8786797 L0,2.12132034 C3.84659382e-16,1.63603897 0.393398282,1.24264069 0.878679656,1.24264069 C1.11171999,1.24264069 1.3352156,1.3352156 1.5,1.5 Z" id="Rectangle"></path>
                    </g>
                </g>
            </g>
        </g>
    </g>
</svg>