<?xml version="1.0" encoding="UTF-8"?>
<svg width="48px" height="33px" viewBox="0 0 48 33" version="1.1" xmlns="http://www.w3.org/2000/svg" xmlns:xlink="http://www.w3.org/1999/xlink">
    <!-- Generator: Sketch 64 (93537) - https://sketch.com -->
    <title>Paused</title>
    <desc>Created with Sketch.</desc>
    <g id="Page-1" stroke="none" stroke-width="1" fill="none" fill-rule="evenodd">
        <g id="1" transform="translate(-1138.000000, -143.000000)">
            <g id="Wide" transform="translate(1114.000000, 119.000000)">
                <g id="Paused" transform="translate(24.000000, 24.000000)">
                    <path d="M47.988947,11.6302355 C48.0967727,8.57670149 47.4142474,5.54601685 46.0047448,2.81958566 C45.0484148,1.70086463 43.7212058,0.945904138 42.2543845,0.686256402 C36.1873516,0.147644654 30.095218,-0.0731146422 24.0040848,0.0249243322 C17.9351435,-0.077564397 11.864928,0.136070726 5.81919836,0.664923109 C4.62392324,0.877651367 3.51778133,1.42618474 2.63575301,2.24358676 C0.673355193,4.01425004 0.455310991,7.04357759 0.23726679,9.60357269 C-0.0790889299,14.2063662 -0.0790889299,18.8247527 0.23726679,23.4275463 C0.300347346,24.8684091 0.51962073,26.2986461 0.891399395,27.6942048 C1.15430643,28.7716766 1.68622044,29.7685393 2.43951323,30.5955326 C3.32753744,31.456237 4.45944064,32.0359739 5.68837184,32.2595294 C10.3892216,32.8272482 15.1257991,33.0625247 19.861245,32.9635281 C27.492792,33.0701945 34.186749,32.9635281 42.1017535,32.3661959 C43.360862,32.156374 44.5246409,31.5758943 45.4378298,30.702199 C46.0482677,30.104689 46.5042402,29.3733442 46.7678995,28.5688698 C47.5476873,26.2277911 47.9306907,23.7776475 47.9017293,21.3155503 C47.988947,20.1208859 47.988947,12.910233 47.988947,11.6302355 Z" id="Path" fill="#35363A" fill-rule="nonzero"></path>
                    <path d="M21.5,9 C22.0522847,9 22.5,9.44771525 22.5,10 L22.5,23 C22.5,23.5522847 22.0522847,24 21.5,24 L18.5,24 C17.9477153,24 17.5,23.5522847 17.5,23 L17.5,10 C17.5,9.44771525 17.9477153,9 18.5,9 L21.5,9 Z M29.5,9 C30.0522847,9 30.5,9.44771525 30.5,10 L30.5,23 C30.5,23.5522847 30.0522847,24 29.5,24 L26.5,24 C25.9477153,24 25.5,23.5522847 25.5,23 L25.5,10 C25.5,9.44771525 25.9477153,9 26.5,9 L29.5,9 Z" id="Rectangle-3" fill="#FFFFFF"></path>
                </g>
            </g>
        </g>
    </g>
</svg>